<svg width="94" height="22" viewBox="0 0 94 22" fill="none" xmlns="http://www.w3.org/2000/svg">
<path d="M5.26 2.04C6.72667 2.04 8.01333 2.32667 9.12 2.9C10.24 3.47333 11.1 4.29333 11.7 5.36C12.3133 6.41333 12.62 7.64 12.62 9.04C12.62 10.44 12.3133 11.6667 11.7 12.72C11.1 13.76 10.24 14.5667 9.12 15.14C8.01333 15.7133 6.72667 16 5.26 16H0.38V2.04H5.26ZM5.16 13.62C6.62667 13.62 7.76 13.22 8.56 12.42C9.36 11.62 9.76 10.4933 9.76 9.04C9.76 7.58667 9.36 6.45333 8.56 5.64C7.76 4.81333 6.62667 4.4 5.16 4.4H3.18V13.62H5.16ZM19.6359 16.18C18.5693 16.18 17.6093 15.9467 16.7559 15.48C15.9026 15 15.2293 14.3267 14.7359 13.46C14.2559 12.5933 14.0159 11.5933 14.0159 10.46C14.0159 9.32667 14.2626 8.32667 14.7559 7.46C15.2626 6.59333 15.9493 5.92667 16.8159 5.46C17.6826 4.98 18.6493 4.74 19.7159 4.74C20.7826 4.74 21.7493 4.98 22.6159 5.46C23.4826 5.92667 24.1626 6.59333 24.6559 7.46C25.1626 8.32667 25.4159 9.32667 25.4159 10.46C25.4159 11.5933 25.1559 12.5933 24.6359 13.46C24.1293 14.3267 23.4359 15 22.5559 15.48C21.6893 15.9467 20.7159 16.18 19.6359 16.18ZM19.6359 13.74C20.1426 13.74 20.6159 13.62 21.0559 13.38C21.5093 13.1267 21.8693 12.7533 22.1359 12.26C22.4026 11.7667 22.5359 11.1667 22.5359 10.46C22.5359 9.40667 22.2559 8.6 21.6959 8.04C21.1493 7.46667 20.4759 7.18 19.6759 7.18C18.8759 7.18 18.2026 7.46667 17.6559 8.04C17.1226 8.6 16.8559 9.40667 16.8559 10.46C16.8559 11.5133 17.1159 12.3267 17.6359 12.9C18.1693 13.46 18.8359 13.74 19.6359 13.74ZM36.9698 2.04V4.3H33.2498V16H30.4498V4.3H26.7298V2.04H36.9698ZM45.2528 4.76C46.0928 4.76 46.8395 4.94667 47.4928 5.32C48.1461 5.68 48.6528 6.22 49.0128 6.94C49.3861 7.64667 49.5728 8.5 49.5728 9.5V16H46.7728V9.88C46.7728 9 46.5528 8.32667 46.1128 7.86C45.6728 7.38 45.0728 7.14 44.3128 7.14C43.5395 7.14 42.9261 7.38 42.4728 7.86C42.0328 8.32667 41.8128 9 41.8128 9.88V16H39.0128V1.2H41.8128V6.3C42.1728 5.82 42.6528 5.44667 43.2528 5.18C43.8528 4.9 44.5195 4.76 45.2528 4.76ZM53.6555 3.6C53.1621 3.6 52.7488 3.44667 52.4155 3.14C52.0955 2.82 51.9355 2.42667 51.9355 1.96C51.9355 1.49333 52.0955 1.10667 52.4155 0.799999C52.7488 0.479999 53.1621 0.319999 53.6555 0.319999C54.1488 0.319999 54.5555 0.479999 54.8755 0.799999C55.2088 1.10667 55.3755 1.49333 55.3755 1.96C55.3755 2.42667 55.2088 2.82 54.8755 3.14C54.5555 3.44667 54.1488 3.6 53.6555 3.6ZM55.0355 4.92V16H52.2355V4.92H55.0355ZM63.9419 4.76C65.2619 4.76 66.3285 5.18 67.1419 6.02C67.9552 6.84667 68.3619 8.00667 68.3619 9.5V16H65.5619V9.88C65.5619 9 65.3419 8.32667 64.9019 7.86C64.4619 7.38 63.8619 7.14 63.1019 7.14C62.3285 7.14 61.7152 7.38 61.2619 7.86C60.8219 8.32667 60.6019 9 60.6019 9.88V16H57.8019V4.92H60.6019V6.3C60.9752 5.82 61.4485 5.44667 62.0219 5.18C62.6085 4.9 63.2485 4.76 63.9419 4.76ZM75.3645 4.74C76.1912 4.74 76.9179 4.90667 77.5445 5.24C78.1712 5.56 78.6645 5.98 79.0245 6.5V4.92H81.8445V16.08C81.8445 17.1067 81.6379 18.02 81.2245 18.82C80.8112 19.6333 80.1912 20.2733 79.3645 20.74C78.5379 21.22 77.5379 21.46 76.3645 21.46C74.7912 21.46 73.4979 21.0933 72.4845 20.36C71.4845 19.6267 70.9179 18.6267 70.7845 17.36H73.5645C73.7112 17.8667 74.0245 18.2667 74.5045 18.56C74.9979 18.8667 75.5912 19.02 76.2845 19.02C77.0979 19.02 77.7579 18.7733 78.2645 18.28C78.7712 17.8 79.0245 17.0667 79.0245 16.08V14.36C78.6645 14.88 78.1645 15.3133 77.5245 15.66C76.8979 16.0067 76.1779 16.18 75.3645 16.18C74.4312 16.18 73.5779 15.94 72.8045 15.46C72.0312 14.98 71.4179 14.3067 70.9645 13.44C70.5245 12.56 70.3045 11.5533 70.3045 10.42C70.3045 9.3 70.5245 8.30667 70.9645 7.44C71.4179 6.57333 72.0245 5.90667 72.7845 5.44C73.5579 4.97333 74.4179 4.74 75.3645 4.74ZM79.0245 10.46C79.0245 9.78 78.8912 9.2 78.6245 8.72C78.3579 8.22667 77.9979 7.85333 77.5445 7.6C77.0912 7.33333 76.6045 7.2 76.0845 7.2C75.5645 7.2 75.0845 7.32667 74.6445 7.58C74.2045 7.83333 73.8445 8.20667 73.5645 8.7C73.2979 9.18 73.1645 9.75333 73.1645 10.42C73.1645 11.0867 73.2979 11.6733 73.5645 12.18C73.8445 12.6733 74.2045 13.0533 74.6445 13.32C75.0979 13.5867 75.5779 13.72 76.0845 13.72C76.6045 13.72 77.0912 13.5933 77.5445 13.34C77.9979 13.0733 78.3579 12.7 78.6245 12.22C78.8912 11.7267 79.0245 11.14 79.0245 10.46ZM88.8192 16.18C87.9126 16.18 87.0992 16.02 86.3792 15.7C85.6592 15.3667 85.0859 14.92 84.6592 14.36C84.2459 13.8 84.0192 13.18 83.9792 12.5H86.7992C86.8526 12.9267 87.0592 13.28 87.4192 13.56C87.7926 13.84 88.2526 13.98 88.7992 13.98C89.3326 13.98 89.7459 13.8733 90.0392 13.66C90.3459 13.4467 90.4992 13.1733 90.4992 12.84C90.4992 12.48 90.3126 12.2133 89.9392 12.04C89.5792 11.8533 88.9992 11.6533 88.1992 11.44C87.3726 11.24 86.6926 11.0333 86.1592 10.82C85.6392 10.6067 85.1859 10.28 84.7992 9.84C84.4259 9.4 84.2392 8.80667 84.2392 8.06C84.2392 7.44667 84.4126 6.88667 84.7592 6.38C85.1192 5.87333 85.6259 5.47333 86.2792 5.18C86.9459 4.88667 87.7259 4.74 88.6192 4.74C89.9392 4.74 90.9926 5.07333 91.7792 5.74C92.5659 6.39333 92.9992 7.28 93.0792 8.4H90.3992C90.3592 7.96 90.1726 7.61333 89.8392 7.36C89.5192 7.09333 89.0859 6.96 88.5392 6.96C88.0326 6.96 87.6392 7.05333 87.3592 7.24C87.0926 7.42667 86.9592 7.68667 86.9592 8.02C86.9592 8.39333 87.1459 8.68 87.5192 8.88C87.8926 9.06667 88.4726 9.26 89.2592 9.46C90.0592 9.66 90.7192 9.86667 91.2392 10.08C91.7592 10.2933 92.2059 10.6267 92.5792 11.08C92.9659 11.52 93.1659 12.1067 93.1792 12.84C93.1792 13.48 92.9992 14.0533 92.6392 14.56C92.2926 15.0667 91.7859 15.4667 91.1192 15.76C90.4659 16.04 89.6992 16.18 88.8192 16.18Z" fill="black"/>
</svg>
